<svg width="531px" height="144px" viewBox="0 0 531 144" version="1.1" xmlns="http://www.w3.org/2000/svg" xmlns:xlink="http://www.w3.org/1999/xlink">
    <!-- Generator: Sketch 50.2 (55047) - http://www.bohemiancoding.com/sketch -->
    <desc>Created with Sketch.</desc>
    <defs></defs>
    <g id="Page-1" stroke="none" stroke-width="1" fill="none" fill-rule="evenodd">
        <g id="Logo" transform="translate(-1.000000, 0.000000)">
            <polygon id="Triangle" fill="#F37300" points="35.0678711 90 1 108 1 72"></polygon>
            <polygon id="Triangle" fill="#EF171D" points="35.0678711 54 1 72 1 36"></polygon>
            <polygon id="Triangle" fill="#F7F701" points="35.0678711 126 1 144 1 108"></polygon>
            <polygon id="Triangle" fill="#ED3700" transform="translate(17.997849, 72.000000) rotate(-180.000000) translate(-17.997849, -72.000000) " points="35 72 0.995697021 90 0.995697021 54"></polygon>
            <polygon id="Triangle" fill="#017AD5" transform="translate(18.002151, 36.000000) rotate(-180.000000) translate(-18.002151, -36.000000) " points="35.004303 36 1 54 1 18"></polygon>
            <polygon id="Triangle" fill="#009287" transform="translate(52.002151, 18.000000) rotate(-180.000000) translate(-52.002151, -18.000000) " points="69.004303 18 35 36 35 0"></polygon>
            <polygon id="Triangle" fill="#01AA3D" transform="translate(86.002151, 36.000000) rotate(-180.000000) translate(-86.002151, -36.000000) " points="103.004303 36 69 54 69 18"></polygon>
            <polygon id="Triangle" fill="#EE171F" transform="translate(120.002151, 54.000000) rotate(-180.000000) translate(-120.002151, -54.000000) " points="137.004303 54 103 72 103 36"></polygon>
            <polygon id="Triangle" fill="#D80E69" transform="translate(86.002151, 72.000000) rotate(-180.000000) translate(-86.002151, -72.000000) " points="103.004303 72 69 90 69 54"></polygon>
            <polygon id="Triangle" fill="#510572" transform="translate(86.002151, 108.000000) rotate(-180.000000) translate(-86.002151, -108.000000) " points="103.004303 108 69 126 69 90"></polygon>
            <polygon id="Triangle" fill="#0053AB" transform="translate(120.002151, 126.000000) rotate(-180.000000) translate(-120.002151, -126.000000) " points="137.004303 126 103 144 103 108"></polygon>
            <polygon id="Triangle" fill="#008EBE" points="69.004303 36 35 54 35 18"></polygon>
            <polygon id="Triangle" fill="#00914E" points="103.004303 18 69 36 69 0"></polygon>
            <polygon id="Triangle" fill="#6FCE0E" points="137.004303 36 103 54 103 18"></polygon>
            <polygon id="Triangle" fill="#F11452" points="137.004303 72 103 90 103 54"></polygon>
            <polygon id="Triangle" fill="#930A72" points="103.004303 90 69 108 69 72"></polygon>
            <polygon id="Triangle" fill="#091F86" points="137.004303 108 103 126 103 90"></polygon>
            <polygon id="Triangle" fill="#FBB300" transform="translate(18.002151, 108.000000) rotate(-180.000000) translate(-18.002151, -108.000000) " points="35.004303 108 1 126 1 90"></polygon>
            <path d="M192.6,77.3 C187.533308,77.3 184.033343,78.266657 182.1,80.2 L182.1,103.1 C187.500027,104.100005 191.19999,105.499991 193.2,107.3 L192.2,115 L163.6,115 L162.6,107.3 C163.533338,106.033327 165.366653,104.900005 168.1,103.9 L168.1,76.1 C165.766655,75.299996 163.93334,74.166674 162.6,72.7 L163.6,65 C167.266685,64.199996 170.566652,63.8 173.5,63.8 C176.433348,63.8 178.866657,63.866666 180.8,64 L180.8,70.3 C182.333341,68.499991 184.299988,67.0166725 186.7,65.85 C189.100012,64.6833275 191.283323,64.1 193.25,64.1 C195.216677,64.1 196.566663,64.266665 197.3,64.6 L197,77.6 C195.66666,77.399999 194.200008,77.3 192.6,77.3 Z M225.4,115.8 C217.39996,115.8 211.383353,113.666688 207.35,109.4 C203.316646,105.133312 201.3,98.933374 201.3,90.8 C201.3,85.866642 201.999993,81.6166845 203.4,78.05 C204.800007,74.4833155 206.699988,71.733343 209.1,69.8 C213.76669,66.066648 219.199969,64.2 225.4,64.2 C231.600031,64.2 236.349984,65.7833175 239.65,68.95 C242.950017,72.1166825 244.6,77.799959 244.6,86 C244.6,90.800024 242.233357,93.2 237.5,93.2 L215.8,93.2 C216.066668,97.400021 217.149991,100.366658 219.05,102.1 C220.95001,103.833342 223.966646,104.7 228.1,104.7 C230.366678,104.7 232.533323,104.433336 234.6,103.9 C236.666677,103.366664 238.166662,102.833336 239.1,102.3 L240.5,101.5 L243.5,109.5 C243.099998,109.966669 242.516671,110.549996 241.75,111.25 C240.98333,111.950004 239.050016,112.883328 235.95,114.05 C232.849985,115.216673 229.333353,115.8 225.4,115.8 Z M231.7,84.3 C231.833334,83.366662 231.9,82.23334 231.9,80.9 C231.9,79.56666 231.366672,78.1500075 230.3,76.65 C229.233328,75.1499925 227.383347,74.4 224.75,74.4 C222.116654,74.4 220.100007,75.199992 218.7,76.8 C217.299993,78.400008 216.366669,81.099981 215.9,84.9 L231.7,84.3 Z M251.7,72.4 C251.7,71.399995 251.733333,70.333339 251.8,69.2 C258.000031,65.86665 264.666631,64.2 271.8,64.2 C278.933369,64.2 284.049984,65.5499865 287.15,68.25 C290.250016,70.9500135 291.8,75.433302 291.8,81.7 L291.8,103 C294.133345,103.466669 295.96666,104.03333 297.3,104.7 L297.3,113.4 C293.899983,115.000008 289.033365,115.8 282.7,115.8 C282.03333,114.066658 281.466669,111.966679 281,109.5 C278.133319,113.700021 272.933371,115.8 265.4,115.8 C260.933311,115.8 257.116683,114.500013 253.95,111.9 C250.783318,109.299987 249.2,105.766689 249.2,101.3 C249.2,96.833311 250.683318,93.3166795 253.65,90.75 C256.616682,88.1833205 261.033304,86.9 266.9,86.9 L277.8,86.9 L277.8,82.1 C277.8,76.899974 275.033361,74.3 269.5,74.3 C267.433323,74.3 265.73334,74.499998 264.4,74.9 C264.266666,77.700014 263.86667,79.866659 263.2,81.4 L253.4,81.4 C252.266661,79.066655 251.7,76.066685 251.7,72.4 Z M269.7,105.6 C273.100017,105.6 275.79999,104.60001 277.8,102.6 L277.8,94.4 L270.8,94.4 C265.999976,94.4 263.6,96.233315 263.6,99.9 C263.6,101.566675 264.116662,102.933328 265.15,104 C266.183338,105.066672 267.69999,105.6 269.7,105.6 Z M300.7,44 C304.433352,43.133329 307.899984,42.7 311.1,42.7 C314.300016,42.7 316.999989,42.799999 319.2,43 L319.2,103.9 C321.800013,104.900005 323.633328,106.033327 324.7,107.3 L323.7,115 L300.7,115 L299.7,107.3 C300.633338,106.033327 302.466653,104.900005 305.2,103.9 L305.2,55.1 C302.866655,54.299996 301.03334,53.166674 299.7,51.7 L300.7,44 Z M347,52.4 L347,65 L361.3,65 L361.3,73.4 L347,73.4 L347,98.7 C347,100.833344 347.299997,102.383329 347.9,103.35 C348.500003,104.316671 349.933322,104.8 352.2,104.8 C354.466678,104.8 356.899987,104.300005 359.5,103.3 L362.5,111.1 C357.366641,113.700013 352.116693,115 346.75,115 C341.383307,115 337.75001,113.850011 335.85,111.55 C333.949991,109.249989 333,105.900022 333,101.5 L333,73.4 L328.5,73.4 L327.4,67.3 C328.466672,66.033327 330.66665,64.766673 334,63.5 C334.800004,58.033306 336.699985,54.333343 339.7,52.4 L347,52.4 Z M365.8,44 C369.533352,43.133329 372.999984,42.7 376.2,42.7 C379.400016,42.7 382.099989,42.799999 384.3,43 L384.3,68 C385.900008,66.933328 388.03332,66.033337 390.7,65.3 C393.36668,64.566663 395.733323,64.2 397.8,64.2 C404.400033,64.2 408.966654,65.799984 411.5,69 C414.033346,72.200016 415.3,77.066634 415.3,83.6 L415.3,103.9 C417.900013,104.900005 419.733328,106.033327 420.8,107.3 L419.8,115 L396.8,115 L395.8,107.3 C396.733338,106.033327 398.566653,104.900005 401.3,103.9 L401.3,84.1 C401.3,80.499982 400.716673,78.0833395 399.55,76.85 C398.383328,75.6166605 396.266682,75 393.2,75 C390.133318,75 387.166681,76.066656 384.3,78.2 L384.3,103.9 C386.900013,104.900005 388.733328,106.033327 389.8,107.3 L388.8,115 L365.8,115 L364.8,107.3 C365.733338,106.033327 367.566653,104.900005 370.3,103.9 L370.3,55.1 C367.966655,54.299996 366.13334,53.166674 364.8,51.7 L365.8,44 Z M461.2,110.8 C456.599977,114.13335 451.183365,115.8 444.95,115.8 C438.716636,115.8 434.366679,114.500013 431.9,111.9 C429.433321,109.299987 428.2,105.066696 428.2,99.2 L428.2,76.1 C425.866655,75.299996 424.03334,74.166674 422.7,72.7 L423.7,65 C427.433352,64.133329 430.899984,63.7 434.1,63.7 C437.300016,63.7 439.999989,63.799999 442.2,64 L442.2,95.9 C442.2,99.500018 442.749995,101.883327 443.85,103.05 C444.950006,104.216673 447.133317,104.8 450.4,104.8 C453.666683,104.8 456.699986,103.733344 459.5,101.6 L459.5,76.1 C457.166655,75.299996 455.33334,74.166674 454,72.7 L455,65 C458.733352,64.133329 462.199984,63.7 465.4,63.7 C468.600016,63.7 471.299989,63.799999 473.5,64 L473.5,103 C475.833345,103.466669 477.66666,104.03333 479,104.7 L479,112.6 C474.99998,114.733344 469.966697,115.8 463.9,115.8 C462.233325,114.599994 461.333334,112.933344 461.2,110.8 Z M481,44 C484.733352,43.133329 488.199984,42.7 491.4,42.7 C494.600016,42.7 497.299989,42.799999 499.5,43 L499.5,68 C500.900007,66.999995 502.766655,66.1166705 505.1,65.35 C507.433345,64.5833295 509.666656,64.2 511.8,64.2 C519.066703,64.2 524.166652,66.066648 527.1,69.8 C530.033348,73.533352 531.5,79.899955 531.5,88.9 C531.5,93.900025 530.816673,98.2166485 529.45,101.85 C528.083327,105.483351 526.233345,108.266657 523.9,110.2 C519.499978,113.933352 514.30003,115.8 508.3,115.8 C503.766644,115.8 499.300022,114.666678 494.9,112.4 C493.633327,114.133342 492.166675,115 490.5,115 L485.5,115 L485.5,55.1 C483.166655,54.299996 481.33334,53.166674 480,51.7 L481,44 Z M507.5,105.6 C513.900032,105.6 517.1,100.233387 517.1,89.5 C517.1,83.833305 516.550006,79.9833435 515.45,77.95 C514.349995,75.9166565 512.433347,74.9 509.7,74.9 C505.566646,74.9 502.16668,75.999989 499.5,78.2 L499.5,103.9 C502.366681,105.033339 505.033321,105.6 507.5,105.6 Z" id="realthub" fill="#222E3F"></path>
        </g>
    </g>
</svg>