<?xml version="1.0" encoding="UTF-8"?>
<svg width="50px" height="26px" viewBox="0 0 50 26" version="1.1" xmlns="http://www.w3.org/2000/svg" xmlns:xlink="http://www.w3.org/1999/xlink">
    <!-- Generator: Sketch 50.2 (55047) - http://www.bohemiancoding.com/sketch -->
    <title>Page 1</title>
    <desc>Created with Sketch.</desc>
    <defs></defs>
    <g id="Page-1" stroke="none" stroke-width="1" fill="none" fill-rule="evenodd">
        <g id="portfoilo-" transform="translate(-197.000000, -1493.000000)" fill="#403676">
            <g id="Tab-Bar---5-Tabs" transform="translate(-3.000000, 1457.000000)">
                <g id="UI-Bars-/-Tab-Bars-/-Base-/-Light-/-5-Text-Icons">
                    <g id="#2" transform="translate(150.000000, 0.000000)">
                        <g id="Page-1" transform="translate(50.000000, 36.000000)">
                            <path d="M35.6917533,17.3929164 L35.1687441,17.3929164 C23.9423221,17.3929164 12.7159001,17.3929164 1.48947805,17.3927696 C0.710468879,17.3927696 0.210065209,17.0569164 0.0441936493,16.4150081 C0.0110193374,16.2870081 0.00265236489,16.1497604 0.0025055759,16.0167696 C-0.000136625935,14.0477421 -0.00101735988,12.0788614 0.00147805296,10.1099806 C0.00265236489,9.25977878 0.515679888,8.74543016 1.37703769,8.74293475 C3.30936796,8.73750356 5.24155145,8.74117328 7.17373493,8.74117328 L35.1665423,8.74117328 L35.6917533,8.74117328 L35.6917533,8.29126502 C35.6917533,6.00443934 35.6891111,3.71761365 35.6930744,1.43064117 C35.6946891,0.505430161 36.2668725,-0.103303784 37.1051845,0.0145677755 C37.4367808,0.0612466746 37.7972946,0.273503555 38.0412579,0.514677867 C40.7804872,3.22322833 43.4994597,5.95203567 46.2238634,8.6755586 C47.3049643,9.75621915 48.3875331,10.8355586 49.4667258,11.9182742 C50.1419551,12.5958522 50.1397533,13.2383476 49.4624689,13.9197421 C45.6434597,17.7622375 41.8243037,21.6045861 38.0035331,25.4451733 C37.375423,26.0766595 36.5779184,26.1068981 36.0372946,25.5350081 C35.7349092,25.2153017 35.6923404,24.8194118 35.6921936,24.4098705 C35.6914597,22.2331366 35.6917533,20.0562558 35.6917533,17.8793751 L35.6917533,17.3929164 Z" id="Fill-1"></path>
                        </g>
                    </g>
                </g>
            </g>
        </g>
    </g>
</svg>