<?xml version="1.0" encoding="UTF-8"?>
<svg width="51px" height="48px" viewBox="0 0 51 48" version="1.1" xmlns="http://www.w3.org/2000/svg" xmlns:xlink="http://www.w3.org/1999/xlink">
    <!-- Generator: Sketch 50.2 (55047) - http://www.bohemiancoding.com/sketch -->
    <title>Page 1 Copy</title>
    <desc>Created with Sketch.</desc>
    <defs></defs>
    <g id="Page-1" stroke="none" stroke-width="1" fill="none" fill-rule="evenodd">
        <g id="portfoilo-" transform="translate(-347.000000, -1482.000000)" fill="#403676">
            <g id="Tab-Bar---5-Tabs" transform="translate(-3.000000, 1457.000000)">
                <g id="UI-Bars-/-Tab-Bars-/-Base-/-Light-/-5-Text-Icons">
                    <g id="#3" transform="translate(300.000000, 0.000000)">
                        <g id="Page-1-Copy" transform="translate(50.000000, 25.000000)">
                            <path d="M35.6917431,17.539611 L35.1687339,17.539611 C23.9423119,17.539611 12.7158899,17.539611 1.48946789,17.5394642 C0.710458716,17.5394642 0.210055046,17.203611 0.0441834862,16.5617028 C0.0110091743,16.4337028 0.00264220183,16.296455 0.00249541284,16.1634642 C-0.000146788991,14.1944367 -0.00102752294,12.225556 0.00146788991,10.2566752 C0.00264220183,9.40647339 0.515669725,8.89212477 1.37702752,8.88962936 C3.3093578,8.88419817 5.24154128,8.88786789 7.17372477,8.88786789 L35.1665321,8.88786789 L35.6917431,8.88786789 L35.6917431,8.43795963 C35.6917431,6.15113394 35.6891009,3.86430826 35.6930642,1.57733578 C35.6946789,0.652124771 36.2668624,0.0433908257 37.1051743,0.161262385 C37.4367706,0.207941284 37.7972844,0.420198165 38.0412477,0.661372477 C40.7804771,3.36992294 43.4994495,6.09873028 46.2238532,8.82225321 C47.3049541,9.90291376 48.3875229,10.9822532 49.4667156,12.0649688 C50.141945,12.7425468 50.1397431,13.3850422 49.4624587,14.0664367 C45.6434495,17.9089321 41.8242936,21.7512807 38.0035229,25.5918679 C37.3754128,26.2233541 36.5779083,26.2535927 36.0372844,25.6817028 C35.7348991,25.3619963 35.6923303,24.9661064 35.6921835,24.5565651 C35.6914495,22.3798312 35.6917431,20.2029505 35.6917431,18.0260697 L35.6917431,17.539611 Z" id="Fill-1"></path>
                            <path d="M14.8037725,30.6127266 L15.3328,30.6127266 C26.5482128,30.6127266 37.7637725,30.6125798 48.9793321,30.6128734 C49.8139743,30.6128734 50.3112954,30.9513688 50.4635156,31.6301211 C50.492433,31.7594422 50.4937541,31.8968367 50.4939009,32.0304147 C50.4958092,33.9628917 50.4963963,35.8953688 50.4946349,37.8278459 C50.4939009,38.7239927 49.9910018,39.2377541 49.0932404,39.2546349 C48.6164697,39.2637358 48.1394055,39.2563963 47.6623413,39.2563963 L15.3366165,39.2563963 L14.8037725,39.2563963 L14.8037725,39.6986716 C14.8037725,41.9123963 14.8024514,44.1262679 14.8046532,46.3399927 C14.8050936,46.7975339 14.7111486,47.2125064 14.3465248,47.5283963 C13.8716624,47.9398459 13.2178642,47.9744881 12.7388917,47.5665615 C12.3676624,47.2502312 12.0321028,46.8914789 11.6865615,46.545644 C8.15922202,43.015956 4.63305688,39.4850936 1.10645138,35.9546716 C0.329056881,35.1762495 0.328469725,34.5733872 1.1061578,33.7955523 C4.89287339,30.0066349 8.67958899,26.2175706 12.4674789,22.4296807 C13.1014606,21.7956991 13.8398092,21.7402128 14.4174239,22.2724697 C14.7551853,22.5838092 14.8033321,22.9912954 14.8034789,23.4150752 C14.8039193,25.6533138 14.8037725,27.8915523 14.8037725,30.129644 L14.8037725,30.6127266 Z" id="Fill-4"></path>
                        </g>
                    </g>
                </g>
            </g>
        </g>
    </g>
</svg>