<?xml version="1.0" encoding="UTF-8"?>
<svg width="40px" height="40px" viewBox="0 0 40 40" version="1.1" xmlns="http://www.w3.org/2000/svg" xmlns:xlink="http://www.w3.org/1999/xlink">
    <!-- Generator: Sketch 50.2 (55047) - http://www.bohemiancoding.com/sketch -->
    <title>Group 4</title>
    <desc>Created with Sketch.</desc>
    <defs></defs>
    <g id="Page-1" stroke="none" stroke-width="1" fill="none" fill-rule="evenodd">
        <g id="portfoilo-" transform="translate(-652.000000, -123.000000)">
            <g id="icons-top" transform="translate(49.000000, 111.000000)">
                <g id="Group-4" transform="translate(603.000000, 12.000000)">
                    <path d="M20.0812334,10.7728337 C14.9733301,10.752946 10.9894373,14.7475187 10.7788552,19.5171406 C10.536228,25.0057256 14.8437191,29.138654 19.8377478,29.2246434 C24.8947224,29.3116343 29.1468498,25.2296414 29.2239584,20.227519 C29.3042142,15.0313839 25.2610952,10.8503815 20.0812334,10.7728337 M19.9988317,39.9990729 C19.0094392,39.9990729 18.0201897,40.0016482 17.0307972,39.9982144 C16.0428353,39.9947805 15.4162391,39.3972901 15.386483,38.4124896 C15.3680284,37.8051269 15.3727494,37.1964764 15.3863399,36.5888275 C15.391347,36.3649117 15.3216775,36.2647576 15.1050869,36.1789113 C14.0574696,35.7642735 13.0177205,35.3293188 11.9815479,34.886924 C11.8148847,34.8156716 11.7160313,34.8060854 11.5827008,34.9452996 C11.1788467,35.3670912 10.7608298,35.7752905 10.3442435,36.1847774 C9.54783687,36.967696 8.69091652,36.9671236 7.89923085,36.1786251 C6.51413856,34.7990746 5.13104909,33.417378 3.75039161,32.0335352 C3.05655794,31.3380369 3.05727324,30.4147596 3.74810268,29.7162567 C4.17556144,29.2841635 4.6020188,28.8504964 5.04306812,28.4324248 C5.19370871,28.2896338 5.18469602,28.1847582 5.10701526,28.0043378 C4.66153113,26.9691742 4.22606109,25.929289 3.81090536,24.8813915 C3.72921896,24.6755034 3.63623094,24.6108325 3.42851001,24.6145525 C2.84454526,24.6252833 2.26043745,24.6197033 1.67632964,24.6179863 C0.635579139,24.6145525 0.0118441282,24.0030405 0.00554955468,22.9488476 C-0.00432148104,21.279995 0.00268838491,19.6108562 0.00268838491,17.9420036 C0.00268838491,17.6082045 -0.00475065651,17.2741192 0.00512037922,16.9406062 C0.0318723166,16.0284889 0.660614375,15.4009523 1.57304142,15.3842123 C2.19248467,15.3730522 2.81264322,15.3743399 3.43222954,15.3859292 C3.64366998,15.3899353 3.73351071,15.3178244 3.81390958,15.1157994 C4.23149731,14.0691896 4.66682429,13.0293044 5.11259454,11.9941408 C5.19127671,11.8115743 5.18913084,11.7059833 5.0410653,11.5656245 C4.60888561,11.1555652 4.18900894,10.7320567 3.77170733,10.3065451 C3.04311045,9.56397432 3.04597162,8.67174483 3.77857414,7.93818796 C5.15136339,6.56321594 6.52586935,5.18981778 7.90223507,3.81842269 C8.67589538,3.04737959 9.56786506,3.05024114 10.3509672,3.8221427 C10.7585409,4.22390351 11.1686895,4.62308894 11.563674,5.03686824 C11.7024408,5.18223469 11.8073026,5.19253624 11.9921342,5.11327147 C13.0283068,4.66973211 14.0699157,4.23806816 15.1172469,3.82114116 C15.3176718,3.74130408 15.3900594,3.64816081 15.3857677,3.43654961 C15.3733216,2.8407761 15.3774703,2.24443028 15.3826204,1.64851369 C15.3916331,0.632522398 16.0232363,0.00384112567 17.0418127,0.00212419911 C18.9965639,-0.00130965399 20.9514582,0.000121118136 22.9062094,0.00155189026 C23.9699923,0.00226727633 24.5877189,0.604479265 24.6138986,1.67913221 C24.6276322,2.25101183 24.6282044,2.82389299 24.6111804,3.39548645 C24.6040275,3.63599925 24.6812791,3.73944407 24.910888,3.82958272 C25.938191,4.23248815 26.9586272,4.65413669 27.9711952,5.0929545 C28.1806328,5.18380853 28.298656,5.18266392 28.4571649,5.0151205 C28.8500035,4.5994812 29.2601522,4.20000962 29.6694425,3.80025189 C30.4280817,3.05968423 31.3177624,3.04966883 32.0663875,3.7913811 C33.4636397,5.17565313 34.8538821,6.56707903 36.2399758,7.96236801 C36.9365276,8.66358943 36.9376721,9.56154201 36.2472718,10.2829373 C35.827109,10.7220413 35.3953585,11.1508437 34.9537369,11.568343 C34.8018088,11.7118494 34.8108215,11.8191574 34.8875009,11.9980039 C35.3271196,13.0231521 35.7594424,14.0517342 36.1703063,15.0886147 C36.2610054,15.317109 36.3667256,15.3940846 36.6062055,15.3872169 C37.1897411,15.3706199 37.7742781,15.3784892 38.3582429,15.3827815 C39.2859772,15.3895061 39.9008425,15.9236134 39.9693676,16.8484645 C40.0187227,17.5124858 39.9932583,18.1825164 39.9946889,18.8496854 C39.997407,20.184882 39.9982654,21.5199355 39.9945459,22.855132 C39.9913986,24.0160605 39.3861181,24.617271 38.2302055,24.6182725 C37.6818623,24.6185586 37.133233,24.6287171 36.5854621,24.6132648 C36.3582852,24.6069694 36.2640096,24.6850896 36.1788898,24.8995623 C35.7680259,25.9361567 35.340281,26.9667419 34.8953691,27.9891716 C34.8083895,28.1889074 34.8148272,28.2983615 34.9696164,28.4460172 C35.4010808,28.857078 35.8206714,29.2807296 36.237973,29.7062413 C36.9207912,30.4020257 36.9565558,31.2998352 36.272164,31.9989105 C34.8548835,33.4472811 33.4211514,34.8797702 31.9715397,36.2956623 C31.2847159,36.9664083 30.4259358,36.9244866 29.7100711,36.2385745 C29.2711677,35.8180705 28.8421352,35.3869789 28.4195405,34.9501642 C28.2905017,34.8168162 28.1927928,34.8099485 28.0214087,34.883204 C26.9740775,35.3307496 25.9214531,35.7665628 24.8641079,36.1896421 C24.6772735,36.2641853 24.6090346,36.3503178 24.6128971,36.5476213 C24.6239126,37.1316624 24.6220529,37.7159898 24.6151861,38.300031 C24.60274,39.3864162 23.9820092,39.9972129 22.8947647,39.9987867 C21.929406,40.0000744 20.9641904,39.9990729 19.9988317,39.9990729" id="Fill-1" fill="#00A276"></path>
                    <path d="M24.9997442,20.0047615 C24.9977673,22.7641959 22.7458204,25.0080025 19.9870837,24.9999785 C17.2141597,24.9918383 14.9954716,22.7451244 15.0000069,19.9501054 C15.0043097,17.2507927 17.2681181,14.9948919 19.9673145,15.0000087 C22.760124,15.0052417 25.0018374,17.2345121 24.9997442,20.0047615" id="Fill-4" fill="#403676" opacity="0.917402627"></path>
                </g>
            </g>
        </g>
    </g>
</svg>