<?xml version="1.0" encoding="UTF-8"?>
<svg width="16px" height="22px" viewBox="0 0 16 22" version="1.1" xmlns="http://www.w3.org/2000/svg" xmlns:xlink="http://www.w3.org/1999/xlink">
    <!-- Generator: Sketch 50.2 (55047) - http://www.bohemiancoding.com/sketch -->
    <title>Shape</title>
    <desc>Created with Sketch.</desc>
    <defs>
        <radialGradient cx="50%" cy="50%" fx="50%" fy="50%" r="199.297519%" gradientTransform="translate(0.500000,0.500000),scale(1.000000,0.750117),rotate(-126.822362),scale(1.000000,0.945712),translate(-0.500000,-0.500000)" id="radialGradient-1">
            <stop stop-color="#FFA480" offset="0%"></stop>
            <stop stop-color="#D91657" offset="100%"></stop>
        </radialGradient>
    </defs>
    <g id="Page-1" stroke="none" stroke-width="1" fill="none" fill-rule="evenodd">
        <g id="Top50" transform="translate(-52.000000, -81.000000)" fill="url(#radialGradient-1)" fill-rule="nonzero">
            <g id="tab" transform="translate(0.000000, 61.000000)">
                <g id="baseline-whatshot-24px" transform="translate(48.000000, 19.000000)">
                    <path d="M13.5,1 C13.5,1 14.24,3.65 14.24,5.8 C14.24,7.86 12.89,9.53 10.83,9.53 C8.76,9.53 7.2,7.86 7.2,5.8 L7.23,5.44 C5.21,7.84 4,10.95 4,14.33 C4,18.75 7.58,22.33 12,22.33 C16.42,22.33 20,18.75 20,14.33 C20,8.94 17.41,4.13 13.5,1 Z M11.71,19.33 C9.93,19.33 8.49,17.93 8.49,16.19 C8.49,14.57 9.54,13.43 11.3,13.07 C13.07,12.71 14.9,11.86 15.92,10.49 C16.31,11.78 16.51,13.14 16.51,14.53 C16.51,17.18 14.36,19.33 11.71,19.33 Z" id="Shape"></path>
                </g>
            </g>
        </g>
    </g>
</svg>