<?xml version="1.0" encoding="UTF-8"?>
<svg width="40px" height="40px" viewBox="0 0 40 40" version="1.1" xmlns="http://www.w3.org/2000/svg" xmlns:xlink="http://www.w3.org/1999/xlink">
    <!-- Generator: Sketch 50.2 (55047) - http://www.bohemiancoding.com/sketch -->
    <title>Shape</title>
    <desc>Created with Sketch.</desc>
    <defs></defs>
    <g id="Page-1" stroke="none" stroke-width="1" fill="none" fill-rule="evenodd">
        <g id="portfoilo-" transform="translate(-575.000000, -122.000000)" fill="#00A276" fill-rule="nonzero">
            <g id="icons-top" transform="translate(49.000000, 111.000000)">
                <g id="baseline-add_circle-24px" transform="translate(526.000000, 11.000000)">
                    <path d="M20,0 C8.96,0 0,8.96 0,20 C0,31.04 8.96,40 20,40 C31.04,40 40,31.04 40,20 C40,8.96 31.04,0 20,0 Z M30,22 L22,22 L22,30 L18,30 L18,22 L10,22 L10,18 L18,18 L18,10 L22,10 L22,18 L30,18 L30,22 Z" id="Shape"></path>
                </g>
            </g>
        </g>
    </g>
</svg>