<?xml version="1.0" encoding="UTF-8"?>
<svg width="53px" height="48px" viewBox="0 0 53 48" version="1.1" xmlns="http://www.w3.org/2000/svg" xmlns:xlink="http://www.w3.org/1999/xlink">
    <!-- Generator: Sketch 50.2 (55047) - http://www.bohemiancoding.com/sketch -->
    <title>Page 1</title>
    <desc>Created with Sketch.</desc>
    <defs></defs>
    <g id="Page-1" stroke="none" stroke-width="1" fill="none" fill-rule="evenodd">
        <g id="portfoilo-" transform="translate(-47.000000, -1481.000000)" fill="#403676">
            <g id="Tab-Bar---5-Tabs" transform="translate(-3.000000, 1457.000000)">
                <g id="UI-Bars-/-Tab-Bars-/-Base-/-Light-/-5-Text-Icons">
                    <g id="#1">
                        <g id="Page-1" transform="translate(50.000000, 24.000000)">
                            <path d="M2.37410912e-05,23.5658953 L7.16421956,23.5658953 L7.16421956,27.442236 L12.6930019,27.442236 L12.6930019,23.5724063 L39.3793363,23.5724063 L39.3793363,27.4407218 L44.9084215,27.4407218 L44.9084215,23.5740719 L52.087677,23.5740719 L52.087677,23.9948669 C52.087677,30.8591697 52.0884341,37.7233211 52.0872227,44.5874726 C52.0869199,46.5601666 50.6858347,47.9826019 48.7072353,47.9832076 C33.5908694,47.9879016 18.4745035,47.9882044 3.35813754,47.9827533 C1.39301451,47.9819962 0.0011659306,46.5665262 0.000711671924,44.6091256 C-0.000499684543,37.7324063 0.000257413249,30.8555356 0.000257413249,23.978665 L2.37410912e-05,23.5658953 Z" id="Fill-1-Copy"></path>
                            <path d="M17.1732492,8.22389905 L34.047142,8.22389905 L34.047142,4.3734511 L17.1732492,4.3734511 L17.1732492,8.22389905 Z M0.000168243954,19.8429274 L0.000302839117,17.0875457 C0.000302839117,15.2706625 5.42101086e-20,13.4537792 0.000302839117,11.6368959 C0.000757097792,9.66511041 1.39639117,8.26341956 3.38876972,8.25781703 C6.35386751,8.24948896 9.3189653,8.25569716 12.2839117,8.25554574 L12.7981325,8.25554574 L12.7981325,7.84444164 C12.7981325,6.00227129 12.7973754,4.16010095 12.7984353,2.3179306 C12.7993438,0.948794953 13.715735,0.0190788644 15.0956215,0.00575394322 C16.2562524,-0.00560252366 17.4171861,0.00317981073 18.5779685,0.00317981073 C24.3945994,0.00317981073 30.2112303,0.00227129338 36.0277098,0.00393690852 C37.2395205,0.00439116719 38.1035205,0.635205047 38.3462461,1.70998107 C38.4037855,1.96482019 38.4066625,2.23555836 38.4074196,2.49917981 C38.4124164,4.26564038 38.4099937,6.03194953 38.4099937,7.79841009 L38.4099937,8.25554574 L38.8872681,8.25554574 C42.1046309,8.25554574 45.3221451,8.25494006 48.5395079,8.25584858 C50.7263091,8.25630284 52.0872681,9.61302208 52.087571,11.791041 C52.0880252,14.3271672 52.0877224,16.8632934 52.0877224,19.3994196 L52.0878213,19.8429274 L0.000168243954,19.8429274 Z" id="Fill-4-Copy"></path>
                        </g>
                    </g>
                </g>
            </g>
        </g>
    </g>
</svg>