<?xml version="1.0" encoding="UTF-8"?>
<svg width="18px" height="18px" viewBox="0 0 18 18" version="1.1" xmlns="http://www.w3.org/2000/svg" xmlns:xlink="http://www.w3.org/1999/xlink">
    <!-- Generator: Sketch 50.2 (55047) - http://www.bohemiancoding.com/sketch -->
    <title>Shape Copy 7</title>
    <desc>Created with Sketch.</desc>
    <defs>
        <radialGradient cx="-3.55738636%" cy="-50.5360692%" fx="-3.55738636%" fy="-50.5360692%" r="160.656028%" gradientTransform="translate(-0.035574,-0.505361),rotate(-134.945995),scale(1.000000,0.945712),translate(0.035574,0.505361)" id="radialGradient-1">
            <stop stop-color="#BC80FF" offset="0%"></stop>
            <stop stop-color="#25007F" offset="100%"></stop>
        </radialGradient>
    </defs>
    <g id="Page-1" stroke="none" stroke-width="1" fill="none" fill-rule="evenodd">
        <g id="Search" transform="translate(-293.000000, -83.000000)" fill="url(#radialGradient-1)" fill-rule="nonzero">
            <g id="tab" transform="translate(0.000000, 61.000000)">
                <g id="baseline-search-24px" transform="translate(290.000000, 19.000000)">
                    <path d="M15.5,14 L14.71,14 L14.43,13.73 C15.41,12.59 16,11.11 16,9.5 C16,5.91 13.09,3 9.5,3 C5.91,3 3,5.91 3,9.5 C3,13.09 5.91,16 9.5,16 C11.11,16 12.59,15.41 13.73,14.43 L14,14.71 L14,15.5 L19,20.49 L20.49,19 L15.5,14 Z M9.5,14 C7.01,14 5,11.99 5,9.5 C5,7.01 7.01,5 9.5,5 C11.99,5 14,7.01 14,9.5 C14,11.99 11.99,14 9.5,14 Z" id="Shape-Copy-7"></path>
                </g>
            </g>
        </g>
    </g>
</svg>