<?xml version="1.0" encoding="UTF-8"?>
<svg width="20px" height="19px" viewBox="0 0 20 19" version="1.1" xmlns="http://www.w3.org/2000/svg" xmlns:xlink="http://www.w3.org/1999/xlink">
    <!-- Generator: Sketch 50.2 (55047) - http://www.bohemiancoding.com/sketch -->
    <title>star-nav</title>
    <desc>Created with Sketch.</desc>
    <defs></defs>
    <g id="Page-1" stroke="none" stroke-width="1" fill="none" fill-rule="evenodd">
        <g id="star-nav" fill="#403676" fill-rule="nonzero">
            <g id="Duotone">
                <g id="Group">
                    <polygon id="Shape" opacity="0.5" points="10 13.4 6.24 15.67 7.24 11.39 3.92 8.51 8.3 8.13 10 4.1 11.71 8.14 16.09 8.52 12.77 11.4 13.77 15.68"></polygon>
                    <path d="M20,7.24 L12.81,6.62 L10,0 L7.19,6.63 L0,7.24 L5.46,11.97 L3.82,19 L10,15.27 L16.18,19 L14.55,11.97 L20,7.24 Z M10,13.4 L6.24,15.67 L7.24,11.39 L3.92,8.51 L8.3,8.13 L10,4.1 L11.71,8.14 L16.09,8.52 L12.77,11.4 L13.77,15.68 L10,13.4 Z" id="Shape"></path>
                </g>
            </g>
        </g>
    </g>
</svg>