<?xml version="1.0" encoding="UTF-8"?>
<svg width="36px" height="48px" viewBox="0 0 36 48" version="1.1" xmlns="http://www.w3.org/2000/svg" xmlns:xlink="http://www.w3.org/1999/xlink">
    <!-- Generator: Sketch 50.2 (55047) - http://www.bohemiancoding.com/sketch -->
    <title>Page 1</title>
    <desc>Created with Sketch.</desc>
    <defs></defs>
    <g id="Page-1" stroke="none" stroke-width="1" fill="none" fill-rule="evenodd">
        <g id="portfoilo-" transform="translate(-655.000000, -1482.000000)" fill="#403676">
            <g id="Tab-Bar---5-Tabs" transform="translate(-3.000000, 1457.000000)">
                <g id="UI-Bars-/-Tab-Bars-/-Base-/-Light-/-5-Text-Icons">
                    <g id="#5" transform="translate(600.000000, 0.000000)">
                        <g id="Page-1" transform="translate(58.000000, 25.000000)">
                            <path d="M8.00145314,21.8753391 L27.8873662,21.8753391 L27.8873662,17.9454609 L8.00145314,17.9454609 L8.00145314,21.8753391 Z M8.00395749,11.9183304 L27.8841662,11.9183304 L27.8841662,7.99415652 L8.00395749,7.99415652 L8.00395749,11.9183304 Z M8.01369662,31.8703304 L27.8922357,31.8703304 L27.8922357,27.9034435 L8.01369662,27.9034435 L8.01369662,31.8703304 Z M13.8830531,47.9105391 C12.5942879,46.5576348 11.3236097,45.2237913 10.0431923,43.8796522 C8.66107053,45.2326957 7.34503575,46.5211826 6.01536618,47.822887 C5.93606184,47.751513 5.85800966,47.6869565 5.78607923,47.6161391 C3.95331401,45.8089739 2.12319227,43.9994435 0.285696618,42.1971478 C0.114844444,42.0296348 0.0456966184,41.8608696 0.0454183575,41.6214261 C0.0340096618,27.8362435 0.0167574879,14.0512 6.18357488e-05,0.266156522 C-7.7294686e-05,0.185878261 6.18357488e-05,0.10573913 0,0 L35.8948792,0 L35.8948792,0.368556522 C35.8948792,14.1188174 35.8943227,27.8692174 35.8997488,41.6194783 C35.8997488,41.8573913 35.838114,42.0258783 35.6654531,42.1945043 C33.8237836,43.992487 31.9904618,45.7988174 30.1543575,47.6023652 C30.081314,47.6741565 30.003401,47.7408 29.9035053,47.8319304 C28.5750879,46.5248 27.2564097,45.2272696 25.930914,43.9229217 C24.5888618,45.236313 23.2719923,46.5250783 21.9380097,47.8305391 C20.611401,46.5318957 19.2891053,45.2374261 17.9502531,43.9268174 C16.6120966,45.2375652 15.2896618,46.5328696 13.8830531,47.9105391 Z" id="Fill-1"></path>
                        </g>
                    </g>
                </g>
            </g>
        </g>
    </g>
</svg>