<?xml version="1.0" encoding="UTF-8"?>
<svg width="20px" height="19px" viewBox="0 0 20 19" version="1.1" xmlns="http://www.w3.org/2000/svg" xmlns:xlink="http://www.w3.org/1999/xlink">
    <!-- Generator: Sketch 50.2 (55047) - http://www.bohemiancoding.com/sketch -->
    <title>top50</title>
    <desc>Created with Sketch.</desc>
    <defs>
        <radialGradient cx="50%" cy="11.7353436%" fx="50%" fy="11.7353436%" r="173.580044%" gradientTransform="translate(0.500000,0.117353),scale(0.950000,1.000000),rotate(-136.414864),scale(1.000000,0.945712),translate(-0.500000,-0.117353)" id="radialGradient-1">
            <stop stop-color="#6A84FF" offset="0%"></stop>
            <stop stop-color="#0045BA" offset="100%"></stop>
        </radialGradient>
    </defs>
    <g id="Page-1" stroke="none" stroke-width="1" fill="none" fill-rule="evenodd">
        <g id="top50" fill="url(#radialGradient-1)" fill-rule="nonzero">
            <path d="M8,0 L12,0 C12.5522847,3.89074334e-16 13,0.44771525 13,1 L13,18 C13,18.5522847 12.5522847,19 12,19 L8,19 C7.44771525,19 7,18.5522847 7,18 L7,1 C7,0.44771525 7.44771525,1.01453063e-16 8,0 Z M1,10 L5,10 C5.55228475,10 6,10.4477153 6,11 L6,18 C6,18.5522847 5.55228475,19 5,19 L1,19 C0.44771525,19 1.84399221e-15,18.5522847 1.77635684e-15,18 L1.77635684e-15,11 C1.70872146e-15,10.4477153 0.44771525,10 1,10 Z M15,5 L19,5 C19.5522847,5 20,5.44771525 20,6 L20,18 C20,18.5522847 19.5522847,19 19,19 L15,19 C14.4477153,19 14,18.5522847 14,18 L14,6 C14,5.44771525 14.4477153,5 15,5 Z" id="Combined-Shape"></path>
        </g>
    </g>
</svg>