<?xml version="1.0" encoding="UTF-8"?>
<svg width="50px" height="26px" viewBox="0 0 50 26" version="1.1" xmlns="http://www.w3.org/2000/svg" xmlns:xlink="http://www.w3.org/1999/xlink">
    <!-- Generator: Sketch 50.2 (55047) - http://www.bohemiancoding.com/sketch -->
    <title>Page 1 Copy 2</title>
    <desc>Created with Sketch.</desc>
    <defs></defs>
    <g id="Page-1" stroke="none" stroke-width="1" fill="none" fill-rule="evenodd">
        <g id="portfoilo-" transform="translate(-497.000000, -1493.000000)" fill="#403676">
            <g id="Tab-Bar---5-Tabs" transform="translate(-3.000000, 1457.000000)">
                <g id="UI-Bars-/-Tab-Bars-/-Base-/-Light-/-5-Text-Icons">
                    <g id="#4" transform="translate(450.000000, 0.000000)">
                        <g id="Page-1-Copy-2" transform="translate(50.000000, 36.000000)">
                            <path d="M14.2806239,8.70262665 L14.8096514,8.70262665 C26.0250643,8.70262665 37.2406239,8.70247986 48.4561835,8.70277344 C49.2908257,8.70277344 49.7881468,9.04126885 49.940367,9.72002115 C49.9692845,9.84934225 49.9706056,9.98673674 49.9707523,10.1203147 C49.9726606,12.0527918 49.9732478,13.9852689 49.9714863,15.9177459 C49.9707523,16.8138927 49.4678533,17.3276542 48.5700918,17.3445349 C48.0933211,17.3536358 47.6162569,17.3462964 47.1391927,17.3462964 L14.8134679,17.3462964 L14.2806239,17.3462964 L14.2806239,17.7885716 C14.2806239,20.0022964 14.2793028,22.2161679 14.2815046,24.4298927 C14.281945,24.887434 14.188,25.3024065 13.8233762,25.6182964 C13.3485138,26.0297459 12.6947156,26.0643881 12.2157432,25.6564615 C11.8445138,25.3401312 11.5089542,24.9813789 11.1634129,24.6355441 C7.63607344,21.105856 4.1099083,17.5749936 0.583302799,14.0445716 C-0.194091696,13.2661496 -0.194678852,12.6632872 0.583009221,11.8854523 C4.36972482,8.09653491 8.15644041,4.30747069 11.9443303,0.519580779 C12.578312,-0.114400872 13.3166606,-0.169887111 13.8942753,0.36236977 C14.2320367,0.67370922 14.2801835,1.08119546 14.2803303,1.50497527 C14.2807707,3.74321381 14.2806239,5.98145234 14.2806239,8.21954408 L14.2806239,8.70262665 Z" id="Fill-4"></path>
                        </g>
                    </g>
                </g>
            </g>
        </g>
    </g>
</svg>